<svg xmlns="http://www.w3.org/2000/svg" version="1.1" xmlns:xlink="http://www.w3.org/1999/xlink" width="250" height="250"><svg width="250" height="250" viewBox="0 0 250 250" fill="none" xmlns="http://www.w3.org/2000/svg">
<rect width="250" height="250" rx="57" fill="#BABABA"></rect>
<path d="M200.886 64.9238L141.615 118.967L201.062 172.838L179.998 120.496L200.886 64.9238Z" fill="url(#paint0_linear_3559_817)"></path>
<path opacity="0.08" d="M141.615 118.967L191.688 89.3955L179.998 120.496L192.164 150.727L141.615 118.967Z" fill="black"></path>
<path opacity="0.54" d="M250 189.342C250 193.337 204.919 196.576 132.011 196.576C59.1032 196.576 0 193.337 0 189.342C0 185.347 59.1032 182.108 132.011 182.108C204.92 182.108 250 185.347 250 189.342Z" fill="url(#paint1_radial_3559_817)"></path>
<path d="M196.14 188.807H67.0283V70.1318L196.14 188.807Z" fill="url(#paint2_linear_3559_817)"></path>
<path opacity="0.04" d="M67.0283 188.807V164.853L89.4872 90.7754L138.214 135.564L117.424 188.807H67.0283Z" fill="black"></path>
<path opacity="0.03" d="M94.2559 95.1582L104.271 188.807H170.236L94.2559 95.1582Z" fill="black"></path>
<path opacity="0.08" d="M196.14 188.807H147.984L67.0283 121.519L153.347 149.473L196.14 188.807Z" fill="black"></path>
<path opacity="0.06" d="M67.0283 188.807L118.463 117.212L145.625 142.375L67.0283 188.807Z" fill="black"></path>
<path opacity="0.07" d="M83.1055 84.6338L67.0283 121.519V133.375L161.584 157.043L83.1055 84.6338Z" fill="black"></path>
<path d="M94.2559 145.82V50H196.994L94.2559 145.82Z" fill="url(#paint3_linear_3559_817)"></path>
<path opacity="0.04" d="M94.2559 117.691V145.82L118.737 122.987L151.693 50L94.2559 117.691Z" fill="black"></path>
<path opacity="0.07" d="M94.2559 106.715L175.821 69.6025L94.2559 81.6374V106.715Z" fill="black"></path>
<path opacity="0.02" d="M118.737 122.987L128.515 50.0067L97.9424 50L118.737 122.987Z" fill="white"></path>
<path opacity="0.04" d="M94.2559 133.375L176.777 68.8556L196.994 50H177.655L94.2559 133.375Z" fill="white"></path>
<path opacity="0.07" d="M140.972 119.279L180.326 111.28L176.783 120.705L180.311 129.47L140.972 119.279Z" fill="black"></path>
<path d="M73.7597 207.497V218.406H72.4813L66.5367 209.841H66.4301V218.406H65.1091V207.497H66.3875L72.3534 216.084H72.46V207.497H73.7597ZM78.6403 218.598C78.1218 218.598 77.6513 218.5 77.2287 218.305C76.8061 218.106 76.4705 217.82 76.2219 217.447C75.9734 217.071 75.8491 216.616 75.8491 216.084C75.8491 215.615 75.9414 215.235 76.1261 214.944C76.3107 214.649 76.5575 214.418 76.8665 214.251C77.1754 214.085 77.5163 213.96 77.8892 213.879C78.2656 213.793 78.6438 213.726 79.0238 213.676C79.521 213.612 79.924 213.564 80.233 213.532C80.5455 213.497 80.7727 213.438 80.9148 213.357C81.0604 213.275 81.1332 213.133 81.1332 212.93V212.888C81.1332 212.362 80.9893 211.954 80.7017 211.663C80.4176 211.371 79.9862 211.226 79.4073 211.226C78.8072 211.226 78.3366 211.357 77.9957 211.62C77.6548 211.883 77.4151 212.163 77.2766 212.462L76.0835 212.036C76.2965 211.538 76.5806 211.151 76.9357 210.874C77.2944 210.594 77.685 210.398 78.1076 210.288C78.5337 210.175 78.9528 210.118 79.3647 210.118C79.6275 210.118 79.9293 210.15 80.2702 210.214C80.6147 210.274 80.9467 210.4 81.2663 210.592C81.5895 210.784 81.8576 211.073 82.0707 211.46C82.2837 211.847 82.3903 212.366 82.3903 213.016V218.406H81.1332V217.298H81.0692C80.984 217.476 80.842 217.666 80.6431 217.868C80.4442 218.071 80.1797 218.243 79.8494 218.385C79.5192 218.527 79.1161 218.598 78.6403 218.598ZM78.832 217.469C79.3292 217.469 79.7482 217.371 80.0891 217.176C80.4336 216.98 80.6928 216.728 80.8668 216.419C81.0444 216.11 81.1332 215.786 81.1332 215.445V214.294C81.0799 214.358 80.9627 214.417 80.7816 214.47C80.604 214.52 80.3981 214.564 80.1637 214.603C79.9329 214.638 79.7074 214.67 79.4872 214.699C79.2706 214.724 79.0948 214.745 78.9599 214.763C78.6332 214.805 78.3278 214.875 78.0437 214.971C77.7631 215.063 77.5359 215.203 77.3619 215.391C77.1914 215.576 77.1062 215.828 77.1062 216.148C77.1062 216.585 77.2678 216.915 77.5909 217.138C77.9176 217.359 78.3313 217.469 78.832 217.469ZM88.243 210.224V211.29H84.0029V210.224H88.243ZM85.2387 208.264H86.4958V216.062C86.4958 216.418 86.5473 216.684 86.6503 216.862C86.7568 217.036 86.8918 217.153 87.0551 217.213C87.222 217.27 87.3978 217.298 87.5825 217.298C87.721 217.298 87.8346 217.291 87.9234 217.277C88.0122 217.259 88.0832 217.245 88.1365 217.234L88.3921 218.364C88.3069 218.396 88.1879 218.428 88.0352 218.46C87.8825 218.495 87.689 218.513 87.4546 218.513C87.0995 218.513 86.7515 218.436 86.4106 218.284C86.0732 218.131 85.7927 217.898 85.569 217.586C85.3488 217.273 85.2387 216.879 85.2387 216.403V208.264ZM92.5416 218.598C92.0232 218.598 91.5526 218.5 91.1301 218.305C90.7075 218.106 90.3719 217.82 90.1233 217.447C89.8747 217.071 89.7504 216.616 89.7504 216.084C89.7504 215.615 89.8428 215.235 90.0274 214.944C90.2121 214.649 90.4589 214.418 90.7678 214.251C91.0768 214.085 91.4177 213.96 91.7906 213.879C92.167 213.793 92.5452 213.726 92.9252 213.676C93.4223 213.612 93.8254 213.564 94.1343 213.532C94.4468 213.497 94.6741 213.438 94.8161 213.357C94.9617 213.275 95.0345 213.133 95.0345 212.93V212.888C95.0345 212.362 94.8907 211.954 94.6031 211.663C94.319 211.371 93.8875 211.226 93.3087 211.226C92.7085 211.226 92.238 211.357 91.8971 211.62C91.5562 211.883 91.3165 212.163 91.178 212.462L89.9848 212.036C90.1979 211.538 90.482 211.151 90.8371 210.874C91.1958 210.594 91.5864 210.398 92.009 210.288C92.4351 210.175 92.8541 210.118 93.2661 210.118C93.5289 210.118 93.8307 210.15 94.1716 210.214C94.5161 210.274 94.8481 210.4 95.1677 210.592C95.4909 210.784 95.759 211.073 95.972 211.46C96.1851 211.847 96.2916 212.366 96.2916 213.016V218.406H95.0345V217.298H94.9706C94.8854 217.476 94.7433 217.666 94.5445 217.868C94.3456 218.071 94.0811 218.243 93.7508 218.385C93.4205 218.527 93.0175 218.598 92.5416 218.598ZM92.7334 217.469C93.2306 217.469 93.6496 217.371 93.9905 217.176C94.335 216.98 94.5942 216.728 94.7682 216.419C94.9458 216.11 95.0345 215.786 95.0345 215.445V214.294C94.9813 214.358 94.8641 214.417 94.683 214.47C94.5054 214.52 94.2994 214.564 94.0651 214.603C93.8343 214.638 93.6088 214.67 93.3886 214.699C93.172 214.724 92.9962 214.745 92.8612 214.763C92.5345 214.805 92.2291 214.875 91.945 214.971C91.6645 215.063 91.4372 215.203 91.2632 215.391C91.0928 215.576 91.0075 215.828 91.0075 216.148C91.0075 216.585 91.1691 216.915 91.4923 217.138C91.819 217.359 92.2327 217.469 92.7334 217.469ZM99.8432 207.497V218.406H98.5861V207.497H99.8432ZM102.146 218.406V210.224H103.403V218.406H102.146ZM102.785 208.861C102.54 208.861 102.329 208.777 102.151 208.61C101.977 208.444 101.89 208.243 101.89 208.009C101.89 207.774 101.977 207.574 102.151 207.407C102.329 207.24 102.54 207.156 102.785 207.156C103.03 207.156 103.239 207.24 103.413 207.407C103.591 207.574 103.68 207.774 103.68 208.009C103.68 208.243 103.591 208.444 103.413 208.61C103.239 208.777 103.03 208.861 102.785 208.861ZM108.113 218.598C107.594 218.598 107.124 218.5 106.701 218.305C106.279 218.106 105.943 217.82 105.695 217.447C105.446 217.071 105.322 216.616 105.322 216.084C105.322 215.615 105.414 215.235 105.599 214.944C105.783 214.649 106.03 214.418 106.339 214.251C106.648 214.085 106.989 213.96 107.362 213.879C107.738 213.793 108.116 213.726 108.496 213.676C108.994 213.612 109.397 213.564 109.706 213.532C110.018 213.497 110.245 213.438 110.387 213.357C110.533 213.275 110.606 213.133 110.606 212.93V212.888C110.606 212.362 110.462 211.954 110.174 211.663C109.89 211.371 109.459 211.226 108.88 211.226C108.28 211.226 107.809 211.357 107.468 211.62C107.127 211.883 106.888 212.163 106.749 212.462L105.556 212.036C105.769 211.538 106.053 211.151 106.408 210.874C106.767 210.594 107.158 210.398 107.58 210.288C108.006 210.175 108.425 210.118 108.837 210.118C109.1 210.118 109.402 210.15 109.743 210.214C110.087 210.274 110.419 210.4 110.739 210.592C111.062 210.784 111.33 211.073 111.543 211.46C111.756 211.847 111.863 212.366 111.863 213.016V218.406H110.606V217.298H110.542C110.457 217.476 110.315 217.666 110.116 217.868C109.917 218.071 109.652 218.243 109.322 218.385C108.992 218.527 108.589 218.598 108.113 218.598ZM108.305 217.469C108.802 217.469 109.221 217.371 109.562 217.176C109.906 216.98 110.165 216.728 110.339 216.419C110.517 216.11 110.606 215.786 110.606 215.445V214.294C110.553 214.358 110.435 214.417 110.254 214.47C110.077 214.52 109.871 214.564 109.636 214.603C109.406 214.638 109.18 214.67 108.96 214.699C108.743 214.724 108.567 214.745 108.433 214.763C108.106 214.805 107.8 214.875 107.516 214.971C107.236 215.063 107.009 215.203 106.835 215.391C106.664 215.576 106.579 215.828 106.579 216.148C106.579 216.585 106.74 216.915 107.064 217.138C107.39 217.359 107.804 217.469 108.305 217.469ZM118.547 218.406V207.497H119.868V212.909H119.995L124.896 207.497H126.622L122.041 212.419L126.622 218.406H125.024L121.231 213.335L119.868 214.869V218.406H118.547ZM130.885 218.577C130.146 218.577 129.498 218.401 128.94 218.049C128.386 217.698 127.953 217.206 127.641 216.574C127.332 215.942 127.177 215.203 127.177 214.358C127.177 213.506 127.332 212.762 127.641 212.126C127.953 211.49 128.386 210.997 128.94 210.645C129.498 210.294 130.146 210.118 130.885 210.118C131.623 210.118 132.27 210.294 132.824 210.645C133.381 210.997 133.814 211.49 134.123 212.126C134.436 212.762 134.592 213.506 134.592 214.358C134.592 215.203 134.436 215.942 134.123 216.574C133.814 217.206 133.381 217.698 132.824 218.049C132.27 218.401 131.623 218.577 130.885 218.577ZM130.885 217.447C131.446 217.447 131.907 217.304 132.27 217.016C132.632 216.728 132.9 216.35 133.074 215.881C133.248 215.413 133.335 214.905 133.335 214.358C133.335 213.811 133.248 213.301 133.074 212.829C132.9 212.357 132.632 211.975 132.27 211.684C131.907 211.393 131.446 211.247 130.885 211.247C130.324 211.247 129.862 211.393 129.5 211.684C129.137 211.975 128.869 212.357 128.695 212.829C128.521 213.301 128.434 213.811 128.434 214.358C128.434 214.905 128.521 215.413 128.695 215.881C128.869 216.35 129.137 216.728 129.5 217.016C129.862 217.304 130.324 217.447 130.885 217.447ZM139.835 218.577C139.068 218.577 138.407 218.396 137.853 218.033C137.299 217.671 136.873 217.172 136.575 216.537C136.277 215.901 136.127 215.175 136.127 214.358C136.127 213.527 136.28 212.794 136.585 212.158C136.894 211.519 137.324 211.02 137.875 210.661C138.429 210.299 139.075 210.118 139.813 210.118C140.389 210.118 140.907 210.224 141.369 210.438C141.831 210.651 142.209 210.949 142.503 211.332C142.798 211.716 142.981 212.163 143.052 212.675H141.795C141.699 212.302 141.486 211.972 141.156 211.684C140.829 211.393 140.389 211.247 139.835 211.247C139.345 211.247 138.915 211.375 138.546 211.631C138.18 211.883 137.894 212.24 137.688 212.701C137.486 213.159 137.384 213.697 137.384 214.315C137.384 214.947 137.484 215.498 137.683 215.967C137.885 216.435 138.169 216.799 138.535 217.059C138.904 217.318 139.338 217.447 139.835 217.447C140.161 217.447 140.458 217.391 140.724 217.277C140.991 217.163 141.216 217 141.401 216.787C141.585 216.574 141.717 216.318 141.795 216.02H143.052C142.981 216.503 142.805 216.938 142.525 217.325C142.248 217.708 141.88 218.014 141.422 218.241C140.968 218.465 140.438 218.577 139.835 218.577ZM146.147 213.484V218.406H144.89V207.497H146.147V211.503H146.253C146.445 211.08 146.733 210.745 147.116 210.496C147.503 210.244 148.018 210.118 148.661 210.118C149.219 210.118 149.707 210.23 150.126 210.453C150.545 210.674 150.87 211.013 151.101 211.471C151.335 211.925 151.452 212.504 151.452 213.207V218.406H150.195V213.293C150.195 212.643 150.027 212.14 149.689 211.785C149.355 211.426 148.892 211.247 148.299 211.247C147.887 211.247 147.518 211.334 147.191 211.508C146.868 211.682 146.612 211.936 146.424 212.27C146.239 212.604 146.147 213.009 146.147 213.484ZM157.183 218.577C156.394 218.577 155.714 218.403 155.142 218.055C154.574 217.703 154.136 217.213 153.827 216.585C153.521 215.952 153.369 215.217 153.369 214.379C153.369 213.541 153.521 212.803 153.827 212.163C154.136 211.521 154.565 211.02 155.116 210.661C155.67 210.299 156.316 210.118 157.055 210.118C157.481 210.118 157.902 210.189 158.317 210.331C158.733 210.473 159.111 210.704 159.452 211.023C159.793 211.339 160.064 211.759 160.267 212.281C160.469 212.803 160.57 213.445 160.57 214.209V214.741H154.263V213.655H159.292C159.292 213.193 159.2 212.781 159.015 212.419C158.834 212.057 158.575 211.771 158.237 211.561C157.903 211.352 157.509 211.247 157.055 211.247C156.554 211.247 156.121 211.371 155.755 211.62C155.393 211.865 155.114 212.185 154.919 212.579C154.723 212.973 154.626 213.396 154.626 213.847V214.571C154.626 215.189 154.732 215.713 154.945 216.142C155.162 216.569 155.462 216.893 155.846 217.117C156.229 217.337 156.675 217.447 157.183 217.447C157.513 217.447 157.811 217.401 158.077 217.309C158.347 217.213 158.58 217.071 158.775 216.883C158.971 216.691 159.121 216.453 159.228 216.169L160.442 216.51C160.315 216.922 160.1 217.284 159.798 217.597C159.496 217.906 159.123 218.147 158.679 218.321C158.235 218.491 157.737 218.577 157.183 218.577ZM166.041 210.224V211.29H161.801V210.224H166.041ZM163.037 208.264H164.294V216.062C164.294 216.418 164.345 216.684 164.448 216.862C164.555 217.036 164.69 217.153 164.853 217.213C165.02 217.27 165.196 217.298 165.38 217.298C165.519 217.298 165.632 217.291 165.721 217.277C165.81 217.259 165.881 217.245 165.934 217.234L166.19 218.364C166.105 218.396 165.986 218.428 165.833 218.46C165.68 218.495 165.487 218.513 165.252 218.513C164.897 218.513 164.549 218.436 164.208 218.284C163.871 218.131 163.591 217.898 163.367 217.586C163.147 217.273 163.037 216.879 163.037 216.403V208.264ZM169.279 215.423L169.258 213.868H169.514L173.093 210.224H174.649L170.835 214.081H170.728L169.279 215.423ZM168.108 218.406V207.497H169.365V218.406H168.108ZM173.306 218.406L170.11 214.358L171.005 213.484L174.904 218.406H173.306ZM179.254 218.577C178.515 218.577 177.867 218.401 177.309 218.049C176.756 217.698 176.322 217.206 176.01 216.574C175.701 215.942 175.546 215.203 175.546 214.358C175.546 213.506 175.701 212.762 176.01 212.126C176.322 211.49 176.756 210.997 177.309 210.645C177.867 210.294 178.515 210.118 179.254 210.118C179.992 210.118 180.639 210.294 181.193 210.645C181.75 210.997 182.183 211.49 182.492 212.126C182.805 212.762 182.961 213.506 182.961 214.358C182.961 215.203 182.805 215.942 182.492 216.574C182.183 217.206 181.75 217.698 181.193 218.049C180.639 218.401 179.992 218.577 179.254 218.577ZM179.254 217.447C179.815 217.447 180.276 217.304 180.639 217.016C181.001 216.728 181.269 216.35 181.443 215.881C181.617 215.413 181.704 214.905 181.704 214.358C181.704 213.811 181.617 213.301 181.443 212.829C181.269 212.357 181.001 211.975 180.639 211.684C180.276 211.393 179.815 211.247 179.254 211.247C178.693 211.247 178.231 211.393 177.869 211.684C177.507 211.975 177.238 212.357 177.064 212.829C176.89 213.301 176.803 213.811 176.803 214.358C176.803 214.905 176.89 215.413 177.064 215.881C177.238 216.35 177.507 216.728 177.869 217.016C178.231 217.304 178.693 217.447 179.254 217.447ZM191.277 210.224L188.252 218.406H186.973L183.948 210.224H185.312L187.57 216.744H187.655L189.914 210.224H191.277ZM195.095 218.598C194.577 218.598 194.106 218.5 193.684 218.305C193.261 218.106 192.926 217.82 192.677 217.447C192.428 217.071 192.304 216.616 192.304 216.084C192.304 215.615 192.396 215.235 192.581 214.944C192.766 214.649 193.013 214.418 193.322 214.251C193.631 214.085 193.971 213.96 194.344 213.879C194.721 213.793 195.099 213.726 195.479 213.676C195.976 213.612 196.379 213.564 196.688 213.532C197.001 213.497 197.228 213.438 197.37 213.357C197.515 213.275 197.588 213.133 197.588 212.93V212.888C197.588 212.362 197.444 211.954 197.157 211.663C196.873 211.371 196.441 211.226 195.862 211.226C195.262 211.226 194.792 211.357 194.451 211.62C194.11 211.883 193.87 212.163 193.732 212.462L192.539 212.036C192.752 211.538 193.036 211.151 193.391 210.874C193.749 210.594 194.14 210.398 194.563 210.288C194.989 210.175 195.408 210.118 195.82 210.118C196.083 210.118 196.384 210.15 196.725 210.214C197.07 210.274 197.402 210.4 197.721 210.592C198.045 210.784 198.313 211.073 198.526 211.46C198.739 211.847 198.845 212.366 198.845 213.016V218.406H197.588V217.298H197.524C197.439 217.476 197.297 217.666 197.098 217.868C196.899 218.071 196.635 218.243 196.305 218.385C195.974 218.527 195.571 218.598 195.095 218.598ZM195.287 217.469C195.784 217.469 196.203 217.371 196.544 217.176C196.889 216.98 197.148 216.728 197.322 216.419C197.499 216.11 197.588 215.786 197.588 215.445V214.294C197.535 214.358 197.418 214.417 197.237 214.47C197.059 214.52 196.853 214.564 196.619 214.603C196.388 214.638 196.162 214.67 195.942 214.699C195.726 214.724 195.55 214.745 195.415 214.763C195.088 214.805 194.783 214.875 194.499 214.971C194.218 215.063 193.991 215.203 193.817 215.391C193.646 215.576 193.561 215.828 193.561 216.148C193.561 216.585 193.723 216.915 194.046 217.138C194.373 217.359 194.786 217.469 195.287 217.469Z" fill="#3A3A3A"></path>
<defs>
<linearGradient id="SvgjsLinearGradient1007" x1="141.615" y1="118.881" x2="201.062" y2="118.881" gradientUnits="userSpaceOnUse">
<stop stop-color="#A40003"></stop>
<stop offset="0.2234" stop-color="#D80004"></stop>
<stop offset="0.6489" stop-color="#FF6F00"></stop>
<stop offset="1" stop-color="#FF6F00"></stop>
</linearGradient>
<radialGradient id="SvgjsRadialGradient1006" cx="0" cy="0" r="1" gradientUnits="userSpaceOnUse" gradientTransform="translate(125 189.351) scale(88.7875 5.40354)">
<stop offset="0.1436" stop-color="#231F20" stop-opacity="0.75"></stop>
<stop offset="1" stop-color="#231F20" stop-opacity="0"></stop>
</radialGradient>
<linearGradient id="SvgjsLinearGradient1005" x1="67.0284" y1="129.47" x2="196.14" y2="129.47" gradientUnits="userSpaceOnUse">
<stop offset="0.2553" stop-color="#003A40"></stop>
<stop offset="0.3404" stop-color="#003A40"></stop>
<stop offset="1" stop-color="#00464D"></stop>
</linearGradient>
<linearGradient id="SvgjsLinearGradient1004" x1="94.2561" y1="97.9098" x2="196.994" y2="97.9098" gradientUnits="userSpaceOnUse">
<stop offset="0.2553" stop-color="#00585F"></stop>
<stop offset="0.7926" stop-color="#00796B"></stop>
<stop offset="1" stop-color="#00796B"></stop>
</linearGradient>
</defs>
</svg><style>@media (prefers-color-scheme: light) { :root { filter: none; } }
@media (prefers-color-scheme: dark) { :root { filter: none; } }
</style></svg>